<?xml version="1.0" encoding="UTF-8" standalone="no"?><!DOCTYPE svg PUBLIC "-//W3C//DTD SVG 1.1//EN" "http://www.w3.org/Graphics/SVG/1.1/DTD/svg11.dtd"><svg width="100%" height="100%" viewBox="0 0 370 370" version="1.1" xmlns="http://www.w3.org/2000/svg" xmlns:xlink="http://www.w3.org/1999/xlink" xml:space="preserve" xmlns:serif="http://www.serif.com/" style="fill-rule:evenodd;clip-rule:evenodd;stroke-linejoin:round;stroke-miterlimit:1.41421;"><g><path d="M369.922,185.039c0,102.151 -82.81,184.961 -184.961,184.961c-102.152,0 -184.961,-82.81 -184.961,-184.961c0,-102.151 82.809,-184.961 184.961,-184.961c102.151,0 184.961,82.81 184.961,184.961Z" style="fill:#7433ff;fill-rule:nonzero;"/><path d="M129.292,184.678l22.624,0c0,-48.974 39.702,-88.675 88.675,-88.675l0,-22.625c-61.469,0 -111.299,49.831 -111.299,111.3Z" style="fill:#fff;fill-rule:nonzero;"/><path d="M240.63,184.678l-22.632,0c0,48.991 -39.715,88.706 -88.706,88.706l0,22.633c61.49,0 111.338,-49.848 111.338,-111.339Z" style="fill:#fff;fill-rule:nonzero;"/></g></svg>